<?xml version="1.0" standalone="no"?><!DOCTYPE svg PUBLIC "-//W3C//DTD SVG 1.1//EN" "http://www.w3.org/Graphics/SVG/1.1/DTD/svg11.dtd"><svg t="1578230993064" class="icon" viewBox="0 0 1024 1024" version="1.1" xmlns="http://www.w3.org/2000/svg" p-id="3387" xmlns:xlink="http://www.w3.org/1999/xlink" width="128" height="128"><defs><style type="text/css"></style></defs><path d="M597.333333 341.333333h42.666667a42.666667 42.666667 0 0 0 0-85.333333h-42.666667a42.666667 42.666667 0 0 0 0 85.333333z m0 170.666667h42.666667a42.666667 42.666667 0 0 0 0-85.333333h-42.666667a42.666667 42.666667 0 0 0 0 85.333333zM384 341.333333h42.666667a42.666667 42.666667 0 0 0 0-85.333333H384a42.666667 42.666667 0 0 0 0 85.333333z m0 170.666667h42.666667a42.666667 42.666667 0 0 0 0-85.333333H384a42.666667 42.666667 0 0 0 0 85.333333z m512 341.333333h-42.666667V128a42.666667 42.666667 0 0 0-42.666666-42.666667H213.333333a42.666667 42.666667 0 0 0-42.666666 42.666667v725.333333H128a42.666667 42.666667 0 0 0 0 85.333334h768a42.666667 42.666667 0 0 0 0-85.333334z m-341.333333 0h-85.333334v-170.666666h85.333334z m213.333333 0h-128v-213.333333a42.666667 42.666667 0 0 0-42.666667-42.666667h-170.666666a42.666667 42.666667 0 0 0-42.666667 42.666667v213.333333H256V170.666667h512z" p-id="3388"></path></svg>