<?xml version="1.0" standalone="no"?><!DOCTYPE svg PUBLIC "-//W3C//DTD SVG 1.1//EN" "http://www.w3.org/Graphics/SVG/1.1/DTD/svg11.dtd"><svg t="1581497589117" class="icon" viewBox="0 0 1024 1024" version="1.1" xmlns="http://www.w3.org/2000/svg" p-id="7861" xmlns:xlink="http://www.w3.org/1999/xlink" width="128" height="128"><defs><style type="text/css"></style></defs><path d="M416 288h512a64 64 0 0 0 0-128H416a64 64 0 0 0 0 128z m512 160H416a64 64 0 0 0 0 128h512a64 64 0 0 0 0-128z m0 288H416a64 64 0 0 0 0 128h512a64 64 0 0 0 0-128zM144 144a96 96 0 1 0 96 96 96 96 0 0 0-96-96z m0 272a96 96 0 1 0 96 96 96 96 0 0 0-96-96z m0 288a96 96 0 1 0 96 96 96 96 0 0 0-96-96z" fill="#231F20" p-id="7862"></path></svg>