<?xml version="1.0" standalone="no"?><!DOCTYPE svg PUBLIC "-//W3C//DTD SVG 1.1//EN" "http://www.w3.org/Graphics/SVG/1.1/DTD/svg11.dtd"><svg t="1581497523236" class="icon" viewBox="0 0 1024 1024" version="1.1" xmlns="http://www.w3.org/2000/svg" p-id="7665" xmlns:xlink="http://www.w3.org/1999/xlink" width="128" height="128"><defs><style type="text/css"></style></defs><path d="M992 160V96c0-17.674-14.326-32-32-32H640c-17.674 0-32 14.326-32 32v64c0 17.674 14.326 32 32 32h75.242v256H308.758V192H384c17.674 0 32-14.326 32-32V96c0-17.674-14.326-32-32-32H64c-17.674 0-32 14.326-32 32v64c0 17.674 14.326 32 32 32h74.55v640H64c-17.674 0-32 14.326-32 32v64c0 17.674 14.326 32 32 32h320c17.674 0 32-14.326 32-32v-64c0-17.674-14.326-32-32-32h-75.242V576H715.24v256H640c-17.674 0-32 14.326-32 32v64c0 17.674 14.326 32 32 32h320c17.674 0 32-14.326 32-32v-64c0-17.674-14.326-32-32-32h-74.55V192H960c17.674 0 32-14.326 32-32z" fill="" p-id="7666"></path></svg>