<svg id="LOGO" xmlns="http://www.w3.org/2000/svg" width="134" height="28" viewBox="0 0 134 28">
  <metadata><?xpacket begin="﻿" id="W5M0MpCehiHzreSzNTczkc9d"?>
<x:xmpmeta xmlns:x="adobe:ns:meta/" x:xmptk="Adobe XMP Core 5.6-c138 79.159824, 2016/09/14-01:09:01        ">
   <rdf:RDF xmlns:rdf="http://www.w3.org/1999/02/22-rdf-syntax-ns#">
      <rdf:Description rdf:about=""/>
   </rdf:RDF>
</x:xmpmeta>
                                                                                                    
                                                                                                    
                                                                                                    
                                                                                                    
                                                                                                    
                                                                                                    
                                                                                                    
                                                                                                    
                                                                                                    
                                                                                                    
                                                                                                    
                                                                                                    
                                                                                                    
                                                                                                    
                                                                                                    
                                                                                                    
                                                                                                    
                                                                                                    
                                                                                                    
                                                                                                    
                           
<?xpacket end="w"?></metadata>
<defs>
    <style>
      .cls-1, .cls-2 {
        fill: #fff;
        fill-rule: evenodd;
      }

      .cls-1 {
        opacity: 0.5;
      }
    </style>
  </defs>
  <path id="logo_拷贝" data-name="logo 拷贝" class="cls-1" d="M415.1,33.493h-3.3a1.018,1.018,0,0,0-.918.578l-1.26,2.628c-1.922,4.008-5.363,11.186-5.363,11.186a1.017,1.017,0,0,0,.9,1.457l8.571,0.136a1.02,1.02,0,0,0,.923-0.555l8.485-16.608a0.508,0.508,0,0,0-.7-0.675,15.47,15.47,0,0,1-7.342,1.852" transform="translate(-390 -22)"/>
  <path id="logo-2" data-name="logo" class="cls-2" d="M426.984,22.453l-26.438.019a0.507,0.507,0,0,0-.244.953,16.878,16.878,0,0,1,7.15,7.391l0.5,1.008a1.019,1.019,0,0,0,.913.567h5.216a15.506,15.506,0,0,0,13.81-8.453,1.019,1.019,0,0,0-.905-1.485M414.392,48.528l-8.468-17.118A16.907,16.907,0,0,0,390.77,22a0.764,0.764,0,0,0-.681,1.111l12.05,23.562A6.109,6.109,0,0,0,407.579,50h5.911a1.019,1.019,0,0,0,.9-1.472" transform="translate(-390 -22)"/>
  <path id="ipzoe" class="cls-2" d="M440,24.552h5.589v23H440v-23Zm31.622,18.683,7.011-14.125h-6.525V24.552h12.635v4.317L477.9,42.993h7.082v4.559H471.622V43.235ZM460.049,24.552h-7.9v23h5.588V38.53h2.312a7.027,7.027,0,0,0,7.024-6.989h0A7.027,7.027,0,0,0,460.049,24.552Zm-0.944,9.867h-1.368V28.663h1.368A2.878,2.878,0,1,1,459.105,34.419Zm31.087-4.1q0-3.453,2.221-4.887A9.721,9.721,0,0,1,497.793,24q0.417,0,.85.034l0.851,0.069a8.559,8.559,0,0,1,4.044,1.692q1.822,1.382,1.822,4.524V40.575A7.747,7.747,0,0,1,503.538,46q-1.823,2-5.988,2-4.235,0-5.8-2.262a8.861,8.861,0,0,1-1.562-5.163V30.319Zm5.588,11.465a1.791,1.791,0,0,0,.607,1.468,2.055,2.055,0,0,0,1.337.5h0.1a2.158,2.158,0,0,0,1.284-.518,1.766,1.766,0,0,0,.59-1.451V30.077a1.768,1.768,0,0,0-.59-1.451,2.167,2.167,0,0,0-1.284-.518h-0.1a2.1,2.1,0,0,0-1.337.483,1.784,1.784,0,0,0-.607,1.485V41.784Zm15.342-17.232H524v4.317h-7.323v4.42h6.838v4.8h-6.838v4.9H524v4.559H511.122v-23Z" transform="translate(-390 -22)"/>
</svg>
