<?xml version="1.0" standalone="no"?><!DOCTYPE svg PUBLIC "-//W3C//DTD SVG 1.1//EN" "http://www.w3.org/Graphics/SVG/1.1/DTD/svg11.dtd"><svg t="1581497633190" class="icon" viewBox="0 0 1024 1024" version="1.1" xmlns="http://www.w3.org/2000/svg" p-id="8087" xmlns:xlink="http://www.w3.org/1999/xlink" width="128" height="128"><defs><style type="text/css"></style></defs><path d="M384 832l640 0 0 128-640 0zM384 448l640 0 0 128-640 0zM384 64l640 0 0 128-640 0zM192 0l0 256-64 0 0-192-64 0 0-64zM128 526.016l0 50.016 128 0 0 64-192 0 0-146.016 128-60 0-50.016-128 0 0-64 192 0 0 146.016zM256 704l0 320-192 0 0-64 128 0 0-64-128 0 0-64 128 0 0-64-128 0 0-64z" p-id="8088"></path></svg>