<?xml version="1.0" standalone="no"?><!DOCTYPE svg PUBLIC "-//W3C//DTD SVG 1.1//EN" "http://www.w3.org/Graphics/SVG/1.1/DTD/svg11.dtd"><svg t="1581497443508" class="icon" viewBox="0 0 1024 1024" version="1.1" xmlns="http://www.w3.org/2000/svg" p-id="7454" xmlns:xlink="http://www.w3.org/1999/xlink" width="128" height="128"><defs><style type="text/css"></style></defs><path d="M880 64H419.062C241.896 64 96.09 206.67 96 383.836 95.912 560.642 239.214 704 416 704v208c0 26.51 21.49 48 48 48h64c26.51 0 48-21.49 48-48V224h64v688c0 26.51 21.49 48 48 48h64c26.51 0 48-21.49 48-48V224h80c26.51 0 48-21.49 48-48V112c0-26.51-21.49-48-48-48z" p-id="7455"></path></svg>