<?xml version="1.0" standalone="no"?><!DOCTYPE svg PUBLIC "-//W3C//DTD SVG 1.1//EN" "http://www.w3.org/Graphics/SVG/1.1/DTD/svg11.dtd"><svg t="1578230742300" class="icon" viewBox="0 0 1024 1024" version="1.1" xmlns="http://www.w3.org/2000/svg" p-id="2506" width="128" height="128" xmlns:xlink="http://www.w3.org/1999/xlink"><defs><style type="text/css"></style></defs><path d="M96 896a32 32 0 1 1 0-64h832a32 32 0 1 1 0 64H96z" p-id="2507"></path><path d="M581.12 832V218.88a32 32 0 0 0-32-32h-330.24a32 32 0 0 0-32 32V832h394.24z m26.88 64h-448a32 32 0 0 1-32-32v-640C128 170.9824 170.9824 128 224 128h320C597.0176 128 640 170.9824 640 224v640a32 32 0 0 1-32 32z" p-id="2508"></path><path d="M837.12 832V384c0-17.67424-14.32576-37.12-32-37.12H640v485.12h197.12z m26.88 64h-256c-17.67424 0-26.88-14.32576-26.88-32V320c0-17.67424 9.20576-32 26.88-32h192C853.0176 288 896 330.9824 896 384v480a32 32 0 0 1-32 32zM288 352a32 32 0 1 1 0-64h192a32 32 0 1 1 0 64h-192z m0 160a32 32 0 1 1 0-64h192a32 32 0 1 1 0 64h-192z m0 160a32 32 0 1 1 0-64h192a32 32 0 1 1 0 64h-192z" p-id="2509"></path></svg>