<?xml version="1.0" standalone="no"?><!DOCTYPE svg PUBLIC "-//W3C//DTD SVG 1.1//EN" "http://www.w3.org/Graphics/SVG/1.1/DTD/svg11.dtd"><svg t="1578231614119" class="icon" viewBox="0 0 1024 1024" version="1.1" xmlns="http://www.w3.org/2000/svg" p-id="10421" xmlns:xlink="http://www.w3.org/1999/xlink" width="128" height="128"><defs><style type="text/css"></style></defs><path d="M512 415.4c53.3 0 96.6 43.3 96.6 96.6s-43.3 96.6-96.6 96.6-96.6-43.3-96.6-96.6 43.3-96.6 96.6-96.6m0-64c-88.7 0-160.6 71.9-160.6 160.6S423.3 672.6 512 672.6 672.6 600.7 672.6 512 600.7 351.4 512 351.4z" fill="#2c2c2c" p-id="10422"></path><path d="M531.8 960.3h-39.6c-55.5 0-104.6-35.4-122-88.1l-5.6-16.9c-5-15.1-15.5-27.8-29.5-35.9l-0.6-0.3c-14.2-8.2-30.5-10.9-46-7.7L271 815c-8.7 1.8-17.5 2.7-26.1 2.7-45.3 0-87.9-23.9-111.2-64.3L113.8 719C86 670.9 92.2 610.8 129.1 569.3l11.4-12.8c10.6-11.9 16.4-27.3 16.3-43.5v-1.9c0-16.2-5.8-31.7-16.3-43.5L129 454.7C92.2 413.2 86 353.1 113.8 305l19.8-34.3c27.8-48.1 83-72.9 137.3-61.6l16 3.3c15.6 3.2 31.9 0.5 45.9-7.7 0.9-0.5 1.8-1.1 2.7-1.6 13.9-8 24.3-20.7 29.4-35.8l5.2-15.6c17.5-52.7 66.5-88.1 122-88.1h39.6c55.5 0 104.6 35.4 122 88.1l5.2 15.6c5 15.1 15.4 27.8 29.4 35.8 0.9 0.5 1.8 1.1 2.7 1.6 14 8.2 30.3 10.9 45.9 7.7l16-3.3c54.4-11.2 109.6 13.5 137.3 61.6L910 305c27.8 48.1 21.6 108.3-15.3 149.7l-11.5 12.9c-10.5 11.8-16.3 27.2-16.3 43.4v1.9c-0.1 16.1 5.7 31.6 16.3 43.5l11.4 12.8c36.9 41.5 43.1 101.7 15.3 149.7l-19.8 34.3c-27.8 48.1-83 72.8-137.3 61.6l-17.5-3.6c-15.5-3.2-31.8-0.5-45.9 7.7l-0.7 0.4c-14 8.1-24.5 20.8-29.5 35.9l-5.6 16.9c-17.2 52.8-66.3 88.2-121.8 88.2zM301.3 746c22.6 0 45 6 65.1 17.6l0.5 0.3c27.7 16 48.4 41.3 58.4 71.3l5.6 16.9c8.8 26.5 33.4 44.3 61.3 44.3h39.6c27.9 0 52.5-17.8 61.3-44.3l5.6-16.9c9.9-30 30.7-55.3 58.3-71.2l0.6-0.3c27.7-16 60-21.3 90.9-14.9l17.5 3.6c27.3 5.6 55-6.8 69-30.9l19.8-34.3c13.9-24.1 10.9-54.4-7.7-75.2l-11.4-13c-21.1-23.7-32.7-54.4-32.5-86.3v-1.6c0-31.9 11.5-62.5 32.5-86l11.5-12.9c18.5-20.8 21.6-51 7.7-75.2L835 302.7c-13.9-24.1-41.7-36.6-69-30.9l-16 3.3c-31.1 6.4-63.5 1.1-91.2-15.1-0.7-0.4-1.5-0.9-2.2-1.3-27.6-15.8-48.3-41.1-58.3-71.2l-5.2-15.6c-8.8-26.5-33.4-44.3-61.3-44.3h-39.6c-27.9 0-52.5 17.8-61.3 44.3l-5.2 15.6c-10 30.1-30.7 55.4-58.3 71.2-0.7 0.4-1.5 0.9-2.2 1.3-27.7 16.2-60 21.5-91.2 15.1l-16-3.3c-27.3-5.6-55 6.8-69 30.9L169.2 337c-13.9 24.1-10.9 54.4 7.7 75.2l11.5 12.9c21 23.6 32.5 54.1 32.5 86.1v1.6c0.1 31.9-11.4 62.6-32.5 86.3L177 611.9c-18.5 20.8-21.6 51-7.7 75.2l19.8 34.3c13.9 24.1 41.7 36.6 69 30.9l17.5-3.6c8.4-1.8 17.1-2.7 25.7-2.7z" fill="#2c2c2c" p-id="10423"></path></svg>